# xmcd
#
# Track frame offsets:
#	150
#	17190
#	32964
#	49420
#	66030
#	81173
#	98533
#	115047
#	128964
#	144579
#	159306
#	176348
#	188733
#	205475
#	225778
#	247419
#
# Disc length: 3659 seconds
#
# Revision: 0
# Processed by: cddbd v1.5.2PL0 Copyright (c) Steve Scherf et al.
# Submitted via: EZCDAudioConverter 1.1.0.1
#
DISCID=d70e4910
DTITLE=Power FM - Power Hits 2013
DYEAR=2013
DGENRE=R&B
TTITLE0=Rihanna  - Diamonds
TTITLE1=Avicii Vs. Nicky Romero -  I Could Be The One (Nicktim)
TTITLE2=	Far East Movement feat. Sidney Samson - Change Your Life
TTITLE3=Maroon 5 - One More Night
TTITLE4=Robbie Williams - Candy
TTITLE5=Justin Bieber feat. Big Sean - As Long As You Love Me
TTITLE6=Florence and The Machine feat. Calvin Harris - Spectrum (Say My Name)
TTITLE7=Nicki Minaj - Va Va Voom
TTITLE8=Owl City feat. Carly Rae Jepsen - Good Time
TTITLE9=The Wanted - Chasing The Sun
TTITLE10=Taio Cruz - Fast Car
TTITLE11=The Lumineers - Ho Hey
TTITLE12=Ne-Yo - Forever Now
TTITLE13=Nelly Furtado - Waiting For The Night
TTITLE14=Ellie Goulding - Anything Could Happen
TTITLE15=Klangkarussell - Sonnentanz
EXTD=
EXTT0=
EXTT1=
EXTT2=
EXTT3=
EXTT4=
EXTT5=
EXTT6=
EXTT7=
EXTT8=
EXTT9=
EXTT10=
EXTT11=
EXTT12=
EXTT13=
EXTT14=
EXTT15=
PLAYORDER=
